<svg xmlns="http://www.w3.org/2000/svg" version="1.1" viewBox="-5.0 -10.0 110.0 135.0">
 <path d="m70.645 64.422c0.31641-0.45312 0.20312-1.0742-0.24609-1.3945-2.082-1.4531-3.0195-3.7031-2.2812-5.4766 0.60547-1.4492 2.2344-2.3477 4.25-2.3477 0.41016 0 0.82812 0.039063 1.2461 0.11328 0.55078 0.10547 1.0625-0.26172 1.1641-0.80469 0.54297-2.9609 0.55078-5.9609 0.023437-8.918-0.097656-0.54297-0.60938-0.90625-1.1602-0.80859-0.40625 0.070313-0.8125 0.10938-1.2148 0.10938-2.0352 0-3.6719-0.90625-4.2695-2.3672-0.73047-1.7773 0.21875-4.0234 2.3086-5.4648 0.45312-0.3125 0.56641-0.9375 0.25391-1.3906-1.707-2.4766-3.8242-4.6016-6.293-6.3203-0.45312-0.31641-1.0742-0.20312-1.3906 0.24609-1.4102 2.0234-3.7305 3.0078-5.4766 2.2812-1.7734-0.73828-2.6914-3-2.2344-5.4961 0.097656-0.54297-0.26172-1.0625-0.80469-1.1641-2.9375-0.53906-5.9805-0.54688-8.918-0.023438-0.54297 0.097657-0.90625 0.61719-0.80859 1.1602 0.44531 2.5-0.48438 4.7539-2.2578 5.4844-0.39453 0.16016-0.81641 0.24219-1.2539 0.24219-1.5117 0-3.125-0.97656-4.2109-2.5508-0.3125-0.45312-0.9375-0.57031-1.3906-0.25391-2.4727 1.707-4.6016 3.8242-6.3203 6.2891-0.31641 0.45312-0.20312 1.0742 0.24609 1.3906 2.082 1.4531 3.0195 3.7031 2.2812 5.4766-0.60547 1.4492-2.2305 2.3477-4.2461 2.3477-0.41016 0-0.82812-0.039062-1.2461-0.11328-0.54688-0.10156-1.0625 0.26172-1.1641 0.80469-0.54297 2.9609-0.55078 5.9609-0.023438 8.9219 0.097657 0.54297 0.61719 0.90625 1.1602 0.80859 0.40625-0.070313 0.81641-0.10938 1.2148-0.10938 2.0312 0 3.668 0.90625 4.2695 2.3672 0.73047 1.7734-0.21875 4.0234-2.3086 5.4648-0.21875 0.14844-0.36719 0.38281-0.41406 0.64453-0.046875 0.26172 0.011719 0.53125 0.16016 0.75 1.707 2.4766 3.8242 4.6016 6.293 6.3203 0.45312 0.31641 1.0781 0.20312 1.3945-0.24609 1.4102-2.0195 3.7305-3.0078 5.4766-2.2812 1.7734 0.73828 2.6914 3 2.2344 5.4961-0.097656 0.54297 0.26172 1.0625 0.80469 1.1641 1.4883 0.27344 3.0117 0.41016 4.5234 0.41016 1.4688 0 2.9453-0.13281 4.3945-0.39062 0.54297-0.097657 0.90625-0.61719 0.80859-1.1602-0.44531-2.5 0.48438-4.7578 2.2578-5.4844 1.75-0.72266 4.0625 0.27734 5.4648 2.3086 0.3125 0.45312 0.9375 0.56641 1.3906 0.25391 2.4648-1.7031 4.5938-3.8203 6.3125-6.2891zm-6.6914 4.0938c-1.4336-1.6484-3.332-2.6094-5.2305-2.6094-0.69922 0-1.3789 0.13281-2.0156 0.39453-2.3906 0.98438-3.7812 3.6445-3.5898 6.6719-2.1016 0.28516-4.2422 0.28125-6.3438-0.019531 0.20703-3.0234-1.1758-5.6914-3.5586-6.6875-0.64453-0.26953-1.3281-0.40234-2.0391-0.40234-1.8906 0-3.7812 0.94922-5.2188 2.582-1.6953-1.2852-3.1953-2.793-4.4766-4.4961 2.2891-1.9922 3.1992-4.8555 2.2148-7.2461-0.97266-2.3672-3.6055-3.7734-6.6719-3.5898-0.28906-2.1094-0.28125-4.2344 0.015624-6.3477 3.0664 0.21094 5.7031-1.1953 6.6875-3.5586 0.99219-2.3828 0.097657-5.25-2.1797-7.2578 1.2891-1.6953 2.793-3.1953 4.4961-4.4766 1.4336 1.6484 3.332 2.6094 5.2305 2.6094 0.69922 0 1.3789-0.13281 2.0156-0.39453 2.3906-0.98438 3.7812-3.6445 3.5898-6.6719 2.1016-0.28516 4.2422-0.28125 6.3438 0.015625-0.20703 3.0273 1.1719 5.6953 3.5586 6.6875 0.64453 0.26953 1.3281 0.40234 2.0391 0.40234 1.8906 0 3.7812-0.94922 5.2188-2.582 1.6953 1.2852 3.1953 2.793 4.4766 4.4961-2.2852 1.9922-3.1953 4.8555-2.2148 7.2461 0.97266 2.3672 3.5938 3.7812 6.6719 3.5898 0.28906 2.1094 0.28125 4.2344-0.015625 6.3438-3.0547-0.20703-5.7031 1.1953-6.6875 3.5586-0.99219 2.3828-0.097656 5.25 2.1797 7.2578-1.2891 1.7031-2.7969 3.2031-4.4961 4.4844zm-13.953-32.953c-7.9609 0-14.438 6.4766-14.438 14.438s6.4766 14.438 14.438 14.438 14.438-6.4766 14.438-14.438-6.4766-14.438-14.438-14.438zm0 26.875c-6.8594 0-12.438-5.5781-12.438-12.438s5.5781-12.438 12.438-12.438 12.438 5.5781 12.438 12.438-5.5781 12.438-12.438 12.438zm-13.703-45.363c-0.10547-0.26172-0.11328-0.5625 0.027344-0.83203l2.8164-5.4219c0.25391-0.48828 0.85938-0.67969 1.3477-0.42578 0.48828 0.25391 0.67969 0.85938 0.42578 1.3477l-1.7148 3.3008c6.582-2.0469 13.535-2.1875 20.266-0.38281 9.4375 2.5273 17.328 8.582 22.215 17.043 4.8867 8.4648 6.1836 18.32 3.6523 27.762-0.65625 2.457-1.5703 4.8477-2.7109 7.0977-0.17578 0.34766-0.52734 0.54688-0.89453 0.54688-0.15234 0-0.30469-0.035156-0.44922-0.10938-0.49219-0.25-0.69141-0.85156-0.44141-1.3438 1.0781-2.1289 1.9414-4.3867 2.5625-6.7109 2.3906-8.9219 1.1641-18.242-3.4531-26.242-4.6172-8-12.078-13.723-21-16.113-6.3438-1.6992-12.898-1.5664-19.105 0.35156l3.25 1.6875c0.48828 0.25391 0.67969 0.85938 0.42578 1.3477-0.17969 0.34375-0.52734 0.53906-0.88672 0.53906-0.15625 0-0.3125-0.035156-0.46094-0.11328l-5.1445-2.6719c-0.31641-0.070313-0.59766-0.27344-0.72266-0.59766 0-0.015624 0.003907-0.035156-0.003906-0.058593zm27.402 65.848c0.10547 0.26172 0.11328 0.5625-0.027344 0.83594l-2.8164 5.4219c-0.17969 0.34375-0.52734 0.53906-0.88672 0.53906-0.15625 0-0.3125-0.035156-0.46094-0.11328-0.48828-0.25391-0.67969-0.85938-0.42578-1.3477l1.7148-3.3047c-3.5117 1.0898-7.125 1.6484-10.758 1.6484-3.1797 0-6.3672-0.41797-9.5078-1.2617-19.484-5.2266-31.09-25.324-25.867-44.809 0.66016-2.4609 1.5703-4.8477 2.7109-7.0977 0.25-0.49219 0.85156-0.6875 1.3438-0.44141 0.49219 0.25 0.69141 0.85156 0.44141 1.3438-1.0781 2.1289-1.9414 4.3867-2.5625 6.7109-4.9375 18.422 6.0312 37.422 24.453 42.359 6.3477 1.6992 12.902 1.5625 19.105-0.35547l-3.25-1.6875c-0.48828-0.25391-0.67969-0.85938-0.42578-1.3477 0.25391-0.48828 0.85938-0.67969 1.3477-0.42578l5.1523 2.6758c0.3125 0.070313 0.58984 0.27344 0.71484 0.59766 0.003907 0.019531 0 0.035157 0.003907 0.058594zm-39.012-48.195c0.19141 0.26172 0.49219 0.40625 0.80469 0.40625 0.10547 0 0.21094-0.015624 0.3125-0.050781 0.41016-0.13672 0.6875-0.51953 0.6875-0.94922v-5.4609h1.7227c2.2578 0 4.0938-1.8359 4.0938-4.0938v-11.488c0-2.2578-1.8359-4.0938-4.0938-4.0938h-15.121c-2.2578 0.003906-4.0938 1.8398-4.0938 4.0977v11.488c0 2.2578 1.8359 4.0938 4.0938 4.0938h7.125zm-13.688-10.145v-11.488c0-1.1562 0.9375-2.0938 2.0938-2.0938h15.121c1.1523 0 2.0938 0.9375 2.0938 2.0938v11.488c0 1.1523-0.9375 2.0938-2.0938 2.0938h-2.7227c-0.55078 0-1 0.44922-1 1v3.4219l-2.9648-4.0156c-0.1875-0.25391-0.48828-0.40625-0.80469-0.40625h-7.6289c-1.1562 0-2.0938-0.94141-2.0938-2.0938zm2.5664-8.6914c0-0.55078 0.44922-1 1-1h12.168c0.55078 0 1 0.44922 1 1s-0.44922 1-1 1h-12.168c-0.55078 0-1-0.44922-1-1zm7.0859 6.8906h-6.0859c-0.55078 0-1-0.44922-1-1s0.44922-1 1-1h6.0859c0.55078 0 1 0.44922 1 1 0 0.55469-0.44922 1-1 1zm66.254 48.543h-7.125l-4.4688-6.0547c-0.25781-0.34766-0.71094-0.48828-1.1172-0.35547-0.41016 0.13672-0.6875 0.51953-0.6875 0.94922v5.4609h-1.7227c-2.2578 0-4.0938 1.8359-4.0938 4.0938v11.488c0 2.2578 1.8359 4.0938 4.0938 4.0938h15.117c2.2617 0 4.0977-1.8359 4.0977-4.0938v-11.488c0-2.2578-1.8359-4.0938-4.0938-4.0938zm2.0938 15.582c0 1.1562-0.9375 2.0938-2.0938 2.0938h-15.117c-1.1523 0-2.0938-0.9375-2.0938-2.0938v-11.488c0-1.1523 0.9375-2.0938 2.0938-2.0938h2.7227c0.55078 0 1-0.44531 1-1v-3.4219l2.9648 4.0156c0.1875 0.25781 0.48828 0.40625 0.80469 0.40625h7.6289c1.1523 0 2.0938 0.9375 2.0938 2.0938zm-2.5664-8.6875c0 0.55469-0.44922 1-1 1h-12.172c-0.55078 0-1-0.44531-1-1s0.44922-1 1-1h12.168c0.55469 0 1.0039 0.44531 1.0039 1zm-6.0859 5.8906c0 0.55469-0.44922 1-1 1h-6.0859c-0.55078 0-1-0.44531-1-1s0.44922-1 1-1h6.0859c0.55078 0 1 0.44531 1 1z"/>
<text x="0.0" y="117.5" font-size="5.0" font-weight="bold" font-family="Arbeit Regular, Helvetica, Arial-Unicode, Arial, Sans-serif" fill="#000000">Created by Profit0101</text><text x="0.0" y="122.5" font-size="5.0" font-weight="bold" font-family="Arbeit Regular, Helvetica, Arial-Unicode, Arial, Sans-serif" fill="#000000">from Noun Project</text></svg>